# xmcd
#
# Track frame offsets: 
#        150
#        12167
#        28705
#        45757
#        57175
#        69947
#        83952
#        116075
#        134087
#
# Disc length: 2034 seconds
#
# Revision: 2
# Processed by: cddbd v1.4PL0 Copyright (c) Steve Scherf et al.
# Submitted via: ExactAudioCopy v0.90b2
#
DISCID=7007f009
DTITLE=Travis Tritt - It's All About to Change
DYEAR=1991
DGENRE=
TTITLE0=The Wiskey Ain't Workin'
TTITLE1=Don't Give Your Heart to a Rambler
TTITLE2=Anymore
TTITLE3=Here's a Quarter (Call Someone Who Cares)
TTITLE4=Bible Belt
TTITLE5=It's All About to Change
TTITLE6=Nothing Short of Dying
TTITLE7=If Hell Had a Jukebox
TTITLE8=Someone for Me
EXTD=
EXTT0=(Ronny Scaife/Marty Stuart]\nFeaturing Marty Stuart\n
EXTT1=(Jimmie Skinner]\n
EXTT2=Travis Tritt/Jill Colucci]\n
EXTT3=(Travis Tritt]\n
EXTT4=(Travis Tritt]\nFeaturing Little Feat\n
EXTT5=(Travis Tritt]\n
EXTT6=(Travis Tritt]\n
EXTT7=(Travis Tritt/Lee Rogers]\n
EXTT8=(Travis Tritt/Lee Rogers]\n
PLAYORDER=
